<?xml version="1.0" encoding="utf-8"?>
<!-- Generator: Adobe Illustrator 21.1.0, SVG Export Plug-In . SVG Version: 6.00 Build 0)  -->
<svg version="1.1" id="Слой_1" xmlns="http://www.w3.org/2000/svg" xmlns:xlink="http://www.w3.org/1999/xlink" x="0px" y="0px"
	 viewBox="0 0 22 22" style="enable-background:new 0 0 22 22;" xml:space="preserve">
<style type="text/css">
	.st0{fill-rule:evenodd;clip-rule:evenodd;fill:#666666;}
</style>
<g>
	<path class="st0" d="M19,20H3c-1.1,0-2-0.9-2-2V9h20v9C21,19.1,20.1,20,19,20z M11,11H3v2h8V11z M11,15H3v2h8V15z M19,11h-6v6h6V11
		z M1,4c0-1.1,0.9-2,2-2h16c1.1,0,2,0.9,2,2v4H1V4z M7,6h12V4H7V6z M4,6c0.6,0,1-0.4,1-1S4.6,4,4,4S3,4.4,3,5S3.4,6,4,6z"/>
</g>
</svg>
