<?xml version="1.0" encoding="utf-8"?>
<!-- Generator: Adobe Illustrator 21.1.0, SVG Export Plug-In . SVG Version: 6.00 Build 0)  -->
<svg version="1.1" id="Слой_1" xmlns="http://www.w3.org/2000/svg" xmlns:xlink="http://www.w3.org/1999/xlink" x="0px" y="0px"
	 viewBox="0 0 22 22" style="enable-background:new 0 0 22 22;" xml:space="preserve">
<style type="text/css">
	.st0{fill:#ffffff;}
</style>
<g>
	<polygon class="st0" points="9,18 6,14 4,14 3.1,15.5 	"/>
	<polygon class="st0" points="18,14 16,14 12,19 17.9,22 22,22 	"/>
</g>
<polygon class="st0" points="2.4,17.2 0,22 13,22 "/>
<path class="st0" d="M11,0C7.7,0,5,2.8,5,6.3C5,11,11,18,11,18s6-7,6-11.7C17,2.8,14.3,0,11,0z M11,9C9.3,9,8,7.7,8,6s1.3-3,3-3
	s3,1.3,3,3S12.7,9,11,9z"/>
</svg>
